<svg xmlns="http://www.w3.org/2000/svg" viewBox="0 0 184.25 67.72">
    <g>
      <polygon points="61.64 56.67 61.64 64.12 61.6 64.12 58.78 56.67 56.08 56.67 56.08 67.55 58.23 67.55 58.23 59.93 58.26 59.93 61.12 67.55 63.78 67.55 63.78 56.67 61.64 56.67"></polygon>
      <polygon points="66.06 56.67 66.06 67.55 72.7 67.55 72.7 65.75 68.4 65.75 68.4 62.83 72.3 62.83 72.3 61.03 68.4 61.03 68.4 58.47 72.54 58.47 72.54 56.67 66.06 56.67"></polygon>
      <polygon points="83.69 56.67 82.41 64.72 82.37 64.72 81.01 56.67 78.77 56.67 77.4 64.72 77.37 64.72 76.09 56.67 73.84 56.67 75.95 67.55 78.57 67.55 79.87 59.66 79.9 59.66 81.2 67.55 83.82 67.55 85.93 56.67 83.69 56.67"></polygon>
      <polygon points="96.53 56.67 94.91 60.88 94.87 60.88 93.34 56.67 90.71 56.67 93.72 63.27 93.72 67.55 96.06 67.55 96.06 63.27 99.06 56.67 96.53 56.67"></polygon>
      <path d="M102.73,64a4.91,4.91,0,0,0,.23,1.25,1.38,1.38,0,0,0,.49.7,1.7,1.7,0,0,0,1.67,0,1.39,1.39,0,0,0,.49-.7,4.86,4.86,0,0,0,.23-1.25q.06-.77.06-1.87c0-.73,0-1.35-.06-1.86a4.94,4.94,0,0,0-.23-1.25,1.39,1.39,0,0,0-.49-.71,1.7,1.7,0,0,0-1.67,0A1.38,1.38,0,0,0,103,59a5,5,0,0,0-.23,1.25c0,.51-.06,1.13-.06,1.86s0,1.35.06,1.87m-2.28-4.14A4.8,4.8,0,0,1,101,58a2.91,2.91,0,0,1,1.19-1.17,5.46,5.46,0,0,1,4.19,0A2.91,2.91,0,0,1,107.57,58a4.82,4.82,0,0,1,.54,1.79,21.42,21.42,0,0,1,0,4.56,4.81,4.81,0,0,1-.54,1.78,2.76,2.76,0,0,1-1.19,1.14,5.74,5.74,0,0,1-4.19,0A2.76,2.76,0,0,1,101,66.18a4.79,4.79,0,0,1-.54-1.78,21.42,21.42,0,0,1,0-4.56"></path>
      <path d="M113.58,61.43a2,2,0,0,0,1.3-.37,1.54,1.54,0,0,0,.45-1.26q0-1.51-1.62-1.51H112.6v3.14Zm1-4.75a3.4,3.4,0,0,1,2.28.69,2.62,2.62,0,0,1,.81,2.11,3.12,3.12,0,0,1-.47,1.79,2.2,2.2,0,0,1-1.46.89v0A1.77,1.77,0,0,1,117.53,64c0,.2,0,.42,0,.66s0,.51,0,.8c0,.58.05,1,.1,1.33a.85.85,0,0,0,.42.62v.09h-2.54a1.13,1.13,0,0,1-.23-.53,5.66,5.66,0,0,1-.07-.62l-.07-2.09a1.64,1.64,0,0,0-.34-1,1.29,1.29,0,0,0-1-.37H112.6v4.6h-2.34V56.67Z"></path>
      <polygon points="125.28 56.67 122.32 61.03 122.29 61.03 122.29 56.67 119.95 56.67 119.95 67.55 122.29 67.55 122.29 64.32 123.15 63.09 125.54 67.55 128.17 67.55 124.66 61.34 127.82 56.67 125.28 56.67"></polygon>
      <rect y="0.44" width="6.21" height="43.8"></rect>
      <polygon points="11.03 0.44 11.03 44.24 26.18 44.24 26.18 39.17 17.24 39.17 17.24 0.44 11.03 0.44"></polygon>
      <path d="M42.07,44.24H36.26V.44h9L49.08,29.1,52.89.44h9v43.8H56.09V31.54c0-5.76.13-11.33.4-18.52L52,44.24H46.21L41.67,13c.33,7.2.4,12.77.4,18.52Z"></path>
      <path d="M75.38,12.83l2.07,18.58H73.11ZM71.44.44l-5.67,43.8h5.81l1-8.39h5.34l.93,8.39h6.28L79.52.44Z"></path>
      <polygon points="101.75 0.44 95.27 19.77 95.27 0.44 89.06 0.44 89.06 44.24 95.27 44.24 95.27 22.28 101.75 44.24 108.69 44.24 101.14 20.65 108.22 0.44 101.75 0.44"></polygon>
      <rect x="112.23" y="0.44" width="6.21" height="43.8"></rect>
      <path d="M131.92,12.83,134,31.41h-4.34ZM128,.44l-5.67,43.8h5.81l1-8.39h5.34l.93,8.39h6.28L136.06.44Z"></path>
      <path d="M152.48,44.68c-4.67,0-7.81-3-7.81-8.32V8.57c0-5.13,3.27-8.57,9.08-8.57s8.61,3.44,8.61,8.57v6.51h-5.81V8.39c0-1.63-.67-3.32-2.8-3.32s-2.8,1.69-2.8,3.32V36.29c0,1.63.67,3.32,2.87,3.32,1.87,0,2.87-1.25,2.87-3.32V26.47h-3.4V21.71h9.21V44.24h-3.61l-1.2-1.94c-.87,1.31-2.54,2.38-5.21,2.38"></path>
      <polygon points="167.83 0.44 167.83 44.24 184.25 44.24 184.25 39.17 174.04 39.17 174.04 23.03 180.65 23.03 180.65 18.02 174.04 18.02 174.04 5.51 183.98 5.51 183.98 0.44 167.83 0.44"></polygon>
    </g>
</svg>